{"title":"Enders Game(2013)1080p MP4_PapaFatHead.mp4","uid":9578849,"size":2998900431,"categoryP":"video","categoryS":"hd___movies","magnet":"?xt=urn:btih:c987ba996fd1e1898567bee4efc53e80e25bd0a6&amp;dn=Enders+Game%282013%291080p+MP4_PapaFatHead.mp4&amp;tr=udp%3A%2F%2Ftracker.openbittorrent.com%3A80&amp;tr=udp%3A%2F%2Fopen.demonii.com%3A1337&amp;tr=udp%3A%2F%2Ftracker.coppersurfer.tk%3A6969&amp;tr=udp%3A%2F%2Fexodus.desync.com%3A6969","seeders":3,"leechers":0,"uploader":"PapaFatHead","files":1,"time":1391734863,"description":"Name:                          : Enders Game(2013)1080p_PapaFatHead.mp4\nFormat                         : MPEG-4\nFormat profile                 : Base Media\nCodec ID                       : isom\nFile size                      : 2.79 GiB\nDuration                       : 1h 53mn\nOverall bit rate mode          : Variable\nOverall bit rate               : 3 513 Kbps\nMovie name                     : Enders Game\nPerformer                      : WinX HD Video Converter Deluxe\nWriting application            : Lavf55.19.104\n\nVideo\nID                             : 1\nFormat                         : MPEG-4 Visual\nFormat profile                 : Simple@L3\nFormat settings, BVOP          : No\nFormat settings, QPel          : No\nFormat settings, GMC           : No warppoints\nFormat settings, Matrix        : Default (H.263)\nCodec ID                       : 20\nDuration                       : 1h 53mn\nBit rate mode                  : Variable\nBit rate                       : 3 379 Kbps\nMaximum bit rate               : 5 000 Kbps\nWidth                          : 1 920 pixels\nHeight                         : 800 pixels\nDisplay aspect ratio           : 16:9\nFrame rate mode                : Constant\nFrame rate                     : 23.976 fps\nColor space                    : YUV\nChroma subsampling             : 4:2:0\nBit depth                      : 8 bits\nScan type                      : Progressive\nCompression mode               : Lossy\nBits/(Pixel*Frame)             : 0.092\nStream size                    : 2.69 GiB (96%)\nWriting library                : Lavc55.39.100\n\nAudio\nID                             : 2\nFormat                         : AAC\nFormat/Info                    : Advanced Audio Codec\nFormat profile                 : LC\nCodec ID                       : 40\nDuration                       : 1h 53mn\nBit rate mode                  : Variable\nBit rate                       : 128 Kbps\nMaximum bit rate               : 5 000 Kbps\nChannel(s)                     : 2 channels\nChannel(s)_Original            : 6 channels\nChannel positions              : Front: L C R, Side: L R, LFE\nSampling rate                  : 44.1 KHz\nCompression mode               : Lossy\nStream size                    : 104 MiB (4%)\nLanguage                       : English\n\nMenu #1\nID                             : 3\nCodec ID                       : text\nDuration                       : 1h 53mn\nLanguage                       : English\nBit rate mode                  : CBR\n\nMenu #2\n00:00:00.000                   : 00:00:00.000\n00:06:10.579                   : 00:06:10.579\n00:14:18.566                   : 00:14:18.566\n00:19:06.145                   : 00:19:06.145\n00:28:07.144                   : 00:28:07.144\n00:33:22.667                   : 00:33:22.667\n00:39:34.664                   : 00:39:34.664\n00:45:43.407                   : 00:45:43.407\n00:53:37.714                   : 00:53:37.714\n01:02:15.607                   : 01:02:15.607\n01:09:21.949                   : 01:09:21.949\n01:15:16.887                   : 01:15:16.887\n01:23:38.305                   : 01:23:38.305\n01:30:54.824                   : 01:30:54.824\n01:35:43.279                   : 01:35:43.279\n01:41:12.858                   : 01:41:12.858","torrent":{"xt":"urn:btih:c987ba996fd1e1898567bee4efc53e80e25bd0a6","amp;dn":"Enders+Game%282013%291080p+MP4_PapaFatHead.mp4","amp;tr":["udp%3A%2F%2Ftracker.openbittorrent.com%3A80","udp%3A%2F%2Fopen.demonii.com%3A1337","udp%3A%2F%2Ftracker.coppersurfer.tk%3A6969","udp%3A%2F%2Fexodus.desync.com%3A6969"],"infoHash":"c987ba996fd1e1898567bee4efc53e80e25bd0a6","infoHashBuffer":{"type":"Buffer","data":[201,135,186,153,111,209,225,137,133,103,190,228,239,197,62,128,226,91,208,166]},"announce":[],"urlList":[]}}